<svg xmlns="http://www.w3.org/2000/svg" xmlns:xlink="http://www.w3.org/1999/xlink" width="100" zoomAndPan="magnify" viewBox="0 0 75 74.999997" height="100" preserveAspectRatio="xMidYMid meet" version="1.0"><defs><g/><clipPath id="f76983aca9"><path d="M 0 0.292969 L 75 0.292969 L 75 75 L 0 75 Z M 0 0.292969 " clip-rule="nonzero"/></clipPath><clipPath id="223a60b3ef"><path d="M 37.5 0.292969 C 16.789062 0.292969 0 17.019531 0 37.648438 C 0 58.277344 16.789062 75 37.5 75 C 58.210938 75 75 58.277344 75 37.648438 C 75 17.019531 58.210938 0.292969 37.5 0.292969 Z M 37.5 0.292969 " clip-rule="nonzero"/></clipPath><clipPath id="d125d94e2a"><path d="M 1.425781 1.664062 L 74 1.664062 L 74 73.441406 L 1.425781 73.441406 Z M 1.425781 1.664062 " clip-rule="nonzero"/></clipPath><clipPath id="24e1b75349"><path d="M 37.605469 1.664062 C 17.625 1.664062 1.425781 17.730469 1.425781 37.554688 C 1.425781 57.375 17.625 73.441406 37.605469 73.441406 C 57.585938 73.441406 73.785156 57.375 73.785156 37.554688 C 73.785156 17.730469 57.585938 1.664062 37.605469 1.664062 Z M 37.605469 1.664062 " clip-rule="nonzero"/></clipPath><clipPath id="5bfd03422f"><path d="M 1.425781 1.667969 L 73.425781 1.667969 L 73.425781 73.664062 L 1.425781 73.664062 Z M 1.425781 1.667969 " clip-rule="nonzero"/></clipPath><clipPath id="0967415a95"><path d="M 37.601562 1.667969 C 17.621094 1.667969 1.425781 17.734375 1.425781 37.550781 C 1.425781 57.371094 17.621094 73.4375 37.601562 73.4375 C 57.582031 73.4375 73.777344 57.371094 73.777344 37.550781 C 73.777344 17.734375 57.582031 1.667969 37.601562 1.667969 Z M 37.601562 1.667969 " clip-rule="nonzero"/></clipPath><clipPath id="9725c1233a"><path d="M 32 30.980469 L 52.25 30.980469 L 52.25 56.480469 L 32 56.480469 Z M 32 30.980469 " clip-rule="nonzero"/></clipPath><clipPath id="87e76bb968"><path d="M 22.585938 22.074219 L 39.777344 22.074219 L 39.777344 42.324219 L 22.585938 42.324219 Z M 22.585938 22.074219 " clip-rule="nonzero"/></clipPath><clipPath id="acd6d778ff"><path d="M 21.488281 18.636719 L 37.933594 18.636719 L 37.933594 22.386719 L 21.488281 22.386719 Z M 21.488281 18.636719 " clip-rule="nonzero"/></clipPath></defs><g clip-path="url(#f76983aca9)"><g clip-path="url(#223a60b3ef)"><path fill="#f0f0f0" d="M 0 0.292969 L 74.996094 0.292969 L 74.996094 75 L 0 75 Z M 0 0.292969 " fill-opacity="1" fill-rule="nonzero"/></g></g><g clip-path="url(#d125d94e2a)"><g clip-path="url(#24e1b75349)"><path fill="#f0f0f0" d="M 1.425781 1.664062 L 73.765625 1.664062 L 73.765625 73.441406 L 1.425781 73.441406 Z M 1.425781 1.664062 " fill-opacity="1" fill-rule="nonzero"/></g></g><g clip-path="url(#5bfd03422f)"><g clip-path="url(#0967415a95)"><path stroke-linecap="butt" transform="matrix(0.75, 0, 0, 0.75, 1.425468, 1.667852)" fill="none" stroke-linejoin="miter" d="M 48.2348 0.000155688 C 21.594171 0.000155688 0.000417582 21.422034 0.000417582 47.843913 C 0.000417582 74.271 21.594171 95.692878 48.2348 95.692878 C 74.875428 95.692878 96.469182 74.271 96.469182 47.843913 C 96.469182 21.422034 74.875428 0.000155688 48.2348 0.000155688 Z M 48.2348 0.000155688 " stroke="#000000" stroke-width="2" stroke-opacity="1" stroke-miterlimit="4"/></g></g><g clip-path="url(#9725c1233a)"><path fill="#000000" d="M 45.421875 30.980469 L 32 30.980469 L 32 31.738281 L 34.035156 31.738281 L 34.035156 43.875 L 32 43.875 L 32 44.640625 L 34.035156 44.640625 L 34.035156 55.488281 L 32 55.488281 L 32 56.480469 L 40.070312 56.480469 L 40.070312 55.488281 L 38.035156 55.488281 L 38.035156 44.644531 L 45.421875 44.644531 C 49.191406 44.644531 52.246094 41.585938 52.246094 37.816406 C 52.246094 34.042969 49.191406 30.980469 45.421875 30.980469 Z M 41.363281 43.882812 L 38.035156 43.882812 L 38.035156 31.738281 L 41.363281 31.738281 C 45.132812 31.738281 48.1875 34.457031 48.1875 37.808594 C 48.1875 41.164062 45.132812 43.882812 41.363281 43.882812 Z M 41.363281 43.882812 " fill-opacity="1" fill-rule="nonzero"/></g><g clip-path="url(#87e76bb968)"><path fill="#000000" d="M 39.773438 22.074219 L 39.773438 22.835938 L 37.726562 22.835938 L 37.726562 41.535156 L 39.378906 41.535156 L 39.378906 42.324219 L 32.96875 42.324219 L 32.96875 41.535156 L 34.546875 41.535156 L 34.546875 31.960938 L 28.515625 31.960938 L 28.515625 30.855469 L 34.546875 30.855469 L 34.546875 22.835938 L 28.96875 22.835938 C 25.863281 22.835938 24.398438 24.347656 23.722656 26.675781 L 22.53125 26.675781 L 22.53125 22.074219 Z M 39.773438 22.074219 " fill-opacity="1" fill-rule="nonzero"/></g><g clip-path="url(#acd6d778ff)"><path fill="#000000" d="M 30.46875 22.46875 C 29.988281 22.828125 28.546875 23.425781 26.96875 24.078125 C 24.382812 25.148438 21.433594 26.367188 21.433594 27.175781 C 21.433594 27.632812 22.207031 27.917969 24.191406 27.917969 L 24.410156 27.917969 L 24.410156 27.535156 L 24.191406 27.535156 C 22.484375 27.535156 21.816406 27.398438 21.816406 27.175781 C 21.816406 26.621094 24.640625 25.453125 27.113281 24.429688 C 28.65625 23.792969 30.066406 23.207031 30.640625 22.8125 C 31.183594 23.167969 32.570312 23.707031 34.121094 24.3125 C 36.742188 25.335938 39.847656 26.546875 39.847656 27.132812 C 39.847656 27.371094 39.121094 27.527344 37.253906 27.535156 L 37.253906 27.917969 C 39.398438 27.902344 40.230469 27.601562 40.230469 27.132812 C 40.230469 26.285156 36.992188 25.023438 34.261719 23.957031 C 32.710938 23.355469 31.332031 22.816406 30.851562 22.496094 L 30.851562 21.308594 C 31.136719 21.261719 31.390625 21.125 31.585938 20.929688 C 31.828125 20.6875 31.980469 20.351562 31.980469 19.980469 C 31.980469 19.609375 31.828125 19.273438 31.585938 19.03125 C 31.34375 18.785156 31.007812 18.636719 30.636719 18.636719 C 30.265625 18.636719 29.929688 18.785156 29.683594 19.03125 C 29.441406 19.273438 29.292969 19.609375 29.292969 19.980469 C 29.292969 20.085938 29.378906 20.171875 29.484375 20.171875 C 29.589844 20.171875 29.671875 20.085938 29.671875 19.980469 C 29.671875 19.714844 29.78125 19.472656 29.957031 19.300781 C 30.128906 19.125 30.371094 19.019531 30.636719 19.019531 C 30.902344 19.019531 31.140625 19.125 31.316406 19.300781 C 31.488281 19.472656 31.597656 19.714844 31.597656 19.980469 C 31.597656 20.246094 31.488281 20.484375 31.316406 20.660156 C 31.140625 20.835938 30.902344 20.941406 30.636719 20.941406 C 30.53125 20.941406 30.445312 21.027344 30.445312 21.132812 C 30.445312 21.167969 30.453125 21.199219 30.46875 21.226562 L 30.46875 22.46875 " fill-opacity="1" fill-rule="nonzero"/></g><g fill="#000000" fill-opacity="1"><g transform="translate(26.703438, 16.288872)"><g><path d="M 0.640625 -5.59375 L 1.015625 -4.953125 L -0.65625 -3.953125 L -0.046875 -2.953125 L 1.484375 -3.875 L 1.859375 -3.234375 L 0.328125 -2.3125 L 1.265625 -0.75 L 0.5 -0.296875 L -1.796875 -4.140625 Z M 0.640625 -5.59375 "/></g></g></g><g fill="#000000" fill-opacity="1"><g transform="translate(30.395103, 14.376888)"><g><path d="M 1.453125 -0.234375 L 0.578125 -0.09375 L -0.125 -4.515625 L 0.75 -4.65625 Z M 1.453125 -0.234375 "/></g></g></g><g fill="#000000" fill-opacity="1"><g transform="translate(32.982786, 13.910905)"><g><path d="M 4.5 -3.578125 L 4.328125 -2.84375 L 3.0625 -3.125 L 2.234375 0.515625 L 1.390625 0.3125 L 2.21875 -3.328125 L 0.953125 -3.609375 L 1.125 -4.34375 Z M 4.5 -3.578125 "/></g></g></g><g fill="#000000" fill-opacity="1"><g transform="translate(24.163675, 62.175673)"><g><path d="M 4.59375 -2.109375 C 4.84375 -1.910156 5.019531 -1.691406 5.125 -1.453125 C 5.238281 -1.222656 5.273438 -0.988281 5.234375 -0.75 C 5.191406 -0.519531 5.082031 -0.289062 4.90625 -0.0625 C 4.738281 0.15625 4.546875 0.3125 4.328125 0.40625 C 4.109375 0.5 3.867188 0.519531 3.609375 0.46875 C 3.359375 0.425781 3.109375 0.304688 2.859375 0.109375 L 2.1875 -0.40625 L 1.15625 0.90625 L 0.453125 0.359375 L 3.21875 -3.171875 Z M 3.203125 -0.515625 C 3.585938 -0.210938 3.921875 -0.242188 4.203125 -0.609375 C 4.492188 -0.984375 4.445312 -1.320312 4.0625 -1.625 L 3.484375 -2.078125 L 2.625 -0.96875 Z M 3.203125 -0.515625 "/></g></g></g><g fill="#000000" fill-opacity="1"><g transform="translate(29.519743, 65.673708)"><g><path d="M 1.859375 -1.609375 L 1.59375 -0.421875 L 3.671875 0.046875 L 3.515625 0.78125 L 0.5625 0.125 L 1.53125 -4.25 L 4.453125 -3.59375 L 4.296875 -2.859375 L 2.25 -3.328125 L 2.015625 -2.3125 L 3.796875 -1.90625 L 3.640625 -1.203125 Z M 1.859375 -1.609375 "/></g></g></g><g fill="#000000" fill-opacity="1"><g transform="translate(35.594763, 66.516123)"><g><path d="M 1.015625 -2.234375 L 1.28125 -1.046875 L 3.375 -1.5 L 3.53125 -0.765625 L 0.5625 -0.125 L -0.390625 -4.5 L 2.53125 -5.140625 L 2.6875 -4.40625 L 0.640625 -3.953125 L 0.859375 -2.9375 L 2.640625 -3.328125 L 2.796875 -2.625 Z M 1.015625 -2.234375 "/></g></g></g><g fill="#000000" fill-opacity="1"><g transform="translate(41.498613, 64.727328)"><g><path d="M 0.453125 -0.359375 L -2.296875 -3.890625 L -1.59375 -4.4375 L -0.46875 -3 L -0.390625 -3.046875 L -0.328125 -5.40625 L 0.375 -5.96875 L 0.421875 -5.921875 L 0.390625 -3.3125 L 3.21875 -2.609375 L 3.265625 -2.546875 L 2.484375 -1.921875 L 0.046875 -2.484375 L -0.03125 -2.4375 L 1.15625 -0.90625 Z M 0.453125 -0.359375 "/></g></g></g></svg>